<svg width="32" height="28" viewBox="0 0 32 28" fill="none" xmlns="http://www.w3.org/2000/svg">
<path d="M0.5 16V16.5H1L19.954 16.5L16.0373 22.2029L15.8428 22.486L16.0373 22.7691L17.9801 25.5971L18.3923 26.1971L18.8044 25.5971L26.5758 14.2831L26.7703 14L26.5758 13.7169L18.803 2.40287L18.3909 1.803L17.9788 2.40287L16.0359 5.23087L15.8414 5.514L16.0359 5.79713L19.9538 11.5L1 11.5H0.5V12V16ZM27.502 1.5H27.002V2L27.002 26V26.5H27.502H30.25H30.75V26L30.75 2V1.5H30.25H27.502Z" fill="#112D4E" stroke="#112D4E"/>
</svg>
