<svg width="144" height="144" viewBox="0 0 144 144" fill="none" xmlns="http://www.w3.org/2000/svg">
<path d="M9 49.5C9 43.5326 11.3705 37.8097 15.5901 33.5901C19.8097 29.3705 25.5326 27 31.5 27H112.5C118.467 27 124.19 29.3705 128.41 33.5901C132.629 37.8097 135 43.5326 135 49.5V85.5C135 88.4547 134.418 91.3806 133.287 94.1104C132.157 96.8402 130.499 99.3206 128.41 101.41C126.321 103.499 123.84 105.157 121.11 106.287C118.381 107.418 115.455 108 112.5 108H31.5C25.5326 108 19.8097 105.629 15.5901 101.41C11.3705 97.1903 9 91.4674 9 85.5V49.5ZM46.314 55.314L40.5 61.137L34.686 55.314C34.2676 54.8956 33.7709 54.5637 33.2243 54.3373C32.6776 54.1109 32.0917 53.9943 31.5 53.9943C30.9083 53.9943 30.3224 54.1109 29.7757 54.3373C29.2291 54.5637 28.7324 54.8956 28.314 55.314C27.8956 55.7324 27.5637 56.2291 27.3373 56.7757C27.1109 57.3224 26.9943 57.9083 26.9943 58.5C26.9943 59.0917 27.1109 59.6776 27.3373 60.2243C27.5637 60.7709 27.8956 61.2676 28.314 61.686L34.137 67.5L28.314 73.314C27.8956 73.7324 27.5637 74.2291 27.3373 74.7757C27.1109 75.3224 26.9943 75.9083 26.9943 76.5C26.9943 77.0917 27.1109 77.6776 27.3373 78.2243C27.5637 78.7709 27.8956 79.2676 28.314 79.686C29.159 80.531 30.305 81.0057 31.5 81.0057C32.0917 81.0057 32.6776 80.8891 33.2243 80.6627C33.7709 80.4363 34.2676 80.1044 34.686 79.686L40.5 73.863L46.314 79.686C46.7324 80.1044 47.2291 80.4363 47.7757 80.6627C48.3224 80.8891 48.9083 81.0057 49.5 81.0057C50.0917 81.0057 50.6776 80.8891 51.2243 80.6627C51.7709 80.4363 52.2676 80.1044 52.686 79.686C53.1044 79.2676 53.4363 78.7709 53.6627 78.2243C53.8891 77.6776 54.0057 77.0917 54.0057 76.5C54.0057 75.9083 53.8891 75.3224 53.6627 74.7757C53.4363 74.2291 53.1044 73.7324 52.686 73.314L46.863 67.5L52.686 61.686C53.1044 61.2676 53.4363 60.7709 53.6627 60.2243C53.8891 59.6776 54.0057 59.0917 54.0057 58.5C54.0057 57.9083 53.8891 57.3224 53.6627 56.7757C53.4363 56.2291 53.1044 55.7324 52.686 55.314C52.2676 54.8956 51.7709 54.5637 51.2243 54.3373C50.6776 54.1109 50.0917 53.9943 49.5 53.9943C48.9083 53.9943 48.3224 54.1109 47.7757 54.3373C47.2291 54.5637 46.7324 54.8956 46.314 55.314ZM82.314 55.314L76.5 61.137L70.686 55.314C70.2676 54.8956 69.7709 54.5637 69.2243 54.3373C68.6776 54.1109 68.0917 53.9943 67.5 53.9943C66.9083 53.9943 66.3224 54.1109 65.7757 54.3373C65.2291 54.5637 64.7324 54.8956 64.314 55.314C63.8956 55.7324 63.5637 56.2291 63.3373 56.7757C63.1109 57.3224 62.9943 57.9083 62.9943 58.5C62.9943 59.0917 63.1109 59.6776 63.3373 60.2243C63.5637 60.7709 63.8956 61.2676 64.314 61.686L70.137 67.5L64.314 73.314C63.8956 73.7324 63.5637 74.2291 63.3373 74.7757C63.1109 75.3224 62.9943 75.9083 62.9943 76.5C62.9943 77.0917 63.1109 77.6776 63.3373 78.2243C63.5637 78.7709 63.8956 79.2676 64.314 79.686C65.159 80.531 66.305 81.0057 67.5 81.0057C68.0917 81.0057 68.6776 80.8891 69.2243 80.6627C69.7709 80.4363 70.2676 80.1044 70.686 79.686L76.5 73.863L82.314 79.686C83.159 80.531 84.305 81.0057 85.5 81.0057C86.695 81.0057 87.841 80.531 88.686 79.686C89.531 78.841 90.0057 77.695 90.0057 76.5C90.0057 75.305 89.531 74.159 88.686 73.314L82.863 67.5L88.686 61.686C89.531 60.841 90.0057 59.695 90.0057 58.5C90.0057 57.305 89.531 56.159 88.686 55.314C87.841 54.469 86.695 53.9943 85.5 53.9943C84.305 53.9943 83.159 54.469 82.314 55.314ZM99 76.5C99 77.6935 99.4741 78.8381 100.318 79.682C101.162 80.5259 102.307 81 103.5 81H112.5C113.693 81 114.838 80.5259 115.682 79.682C116.526 78.8381 117 77.6935 117 76.5C117 75.3065 116.526 74.1619 115.682 73.318C114.838 72.4741 113.693 72 112.5 72H103.5C102.307 72 101.162 72.4741 100.318 73.318C99.4741 74.1619 99 75.3065 99 76.5Z" fill="#112D4E"/>
</svg>
