<svg width="30" height="30" viewBox="0 0 30 30" fill="none" xmlns="http://www.w3.org/2000/svg">
<path d="M11.2501 21.405L5.7044 15.8582L5.70437 15.8582C5.43469 15.5885 5.06892 15.437 4.68753 15.437C4.30615 15.437 3.94038 15.5885 3.6707 15.8582L4.02217 16.2097L3.6707 15.8582C3.40102 16.1279 3.24951 16.4936 3.24951 16.875C3.24951 17.2564 3.40102 17.6222 3.6707 17.8919L10.233 24.4542L10.2332 24.4544L10.5868 24.1008C10.6738 24.188 10.7772 24.2571 10.891 24.3043C11.0048 24.3515 11.1268 24.3758 11.25 24.3758C11.3732 24.3758 11.4952 24.3515 11.609 24.3043C11.7229 24.2571 11.8262 24.188 11.9133 24.1008M11.2501 21.405L12.2669 24.4544L11.9133 24.1008M11.2501 21.405L11.6036 21.7586L25.5868 7.77425C25.7627 7.59834 26.0013 7.49951 26.25 7.49951C26.4988 7.49951 26.7374 7.59834 26.9133 7.77425C27.0892 7.95016 27.1881 8.18875 27.1881 8.43753C27.1881 8.68631 27.0892 8.9249 26.9133 9.10081L11.9133 24.1008M11.2501 21.405L25.2332 7.42071L25.2332 7.4207C25.5029 7.15102 25.8687 6.99951 26.25 6.99951C26.6314 6.99951 26.9972 7.15102 27.2669 7.4207C27.5366 7.69038 27.6881 8.05615 27.6881 8.43753C27.6881 8.81892 27.5366 9.18469 27.2669 9.45437L12.2671 24.4542L11.9133 24.1008" fill="#007605" stroke="#007605"/>
</svg>
