<svg width="150" height="150" viewBox="0 0 150 150" fill="none" xmlns="http://www.w3.org/2000/svg">
<path d="M48.457 28.125H101.543C105.527 28.125 109.072 30.6445 110.391 34.3945L118.037 56.25H31.9629L39.6094 34.3945C40.9277 30.6445 44.4727 28.125 48.457 28.125ZM21.9141 28.2129L11.6016 57.6562C4.80469 60.4688 0 67.1777 0 75V98.4375C0 105.381 3.7793 111.445 9.375 114.668V131.25C9.375 136.436 13.5645 140.625 18.75 140.625H28.125C33.3105 140.625 37.5 136.436 37.5 131.25V117.188H112.5V131.25C112.5 136.436 116.689 140.625 121.875 140.625H131.25C136.436 140.625 140.625 136.436 140.625 131.25V114.668C146.221 111.416 150 105.381 150 98.4375V75C150 67.1777 145.195 60.4688 138.398 57.6562L128.086 28.2129C124.131 16.9336 113.496 9.375 101.543 9.375H48.457C36.5039 9.375 25.8691 16.9336 21.9141 28.2129ZM60.9375 79.6875H89.0625C91.6406 79.6875 93.75 81.7969 93.75 84.375V93.75C93.75 96.3281 91.6406 98.4375 89.0625 98.4375H60.9375C58.3594 98.4375 56.25 96.3281 56.25 93.75V84.375C56.25 81.7969 58.3594 79.6875 60.9375 79.6875ZM14.0625 82.0312C14.0625 78.1348 17.1973 75 21.0938 75H30.4688C34.3652 75 37.5 78.1348 37.5 82.0312C37.5 85.9277 34.3652 89.0625 30.4688 89.0625H21.0938C17.1973 89.0625 14.0625 85.9277 14.0625 82.0312ZM119.531 75H128.906C132.803 75 135.938 78.1348 135.938 82.0312C135.938 85.9277 132.803 89.0625 128.906 89.0625H119.531C115.635 89.0625 112.5 85.9277 112.5 82.0312C112.5 78.1348 115.635 75 119.531 75Z" fill="#7D7D7D"/>
</svg>
