<svg width="57" height="50" viewBox="0 0 57 50" fill="none" xmlns="http://www.w3.org/2000/svg">
<path d="M16.6667 18.75H33.3333M16.6667 27.0833H29.1667M27.0833 37.5L16.6667 43.75V37.5H12.5C10.8424 37.5 9.25269 36.8415 8.08058 35.6694C6.90848 34.4973 6.25 32.9076 6.25 31.25V14.5833C6.25 12.9257 6.90848 11.336 8.08058 10.1639C9.25269 8.99182 10.8424 8.33334 12.5 8.33334H25H37.5C39.1576 8.33334 40.7473 8.99182 41.9194 10.1639C43.0915 11.336 43.75 12.9257 43.75 14.5833V21.875" stroke="#DBE2EF" stroke-width="5" stroke-linecap="round" stroke-linejoin="round"/>
<path d="M44.5 26.3889C42.3024 26.3889 40.1542 27.0405 38.327 28.2614C36.4998 29.4823 35.0756 31.2177 34.2347 33.248C33.3937 35.2782 33.1737 37.5123 33.6024 39.6677C34.0311 41.823 35.0893 43.8028 36.6433 45.3567C38.1972 46.9107 40.177 47.9689 42.3323 48.3976C44.4877 48.8263 46.7217 48.6063 48.752 47.7653C50.7823 46.9244 52.5176 45.5002 53.7386 43.673C54.9595 41.8458 55.6111 39.6976 55.6111 37.5C55.6111 34.5531 54.4405 31.727 52.3567 29.6433C50.273 27.5595 47.4469 26.3889 44.5 26.3889ZM49.8125 41.3819C49.1181 43.4653 47.3056 44.0486 45.7153 44.1597V45.5486C45.7153 45.7788 45.6238 45.9996 45.461 46.1624C45.2982 46.3252 45.0774 46.4167 44.8472 46.4167C44.617 46.4167 44.3962 46.3252 44.2334 46.1624C44.0706 45.9996 43.9792 45.7788 43.9792 45.5486V44.1597C42.3845 44.0102 40.8719 43.3834 39.6389 42.3611C39.5554 42.2831 39.4882 42.1895 39.4409 42.0855C39.3937 41.9816 39.3674 41.8693 39.3635 41.7552C39.3596 41.641 39.3783 41.5272 39.4184 41.4203C39.4585 41.3134 39.5193 41.2154 39.5972 41.1319C39.6752 41.0485 39.7688 40.9812 39.8728 40.934C39.9768 40.8867 40.089 40.8604 40.2032 40.8565C40.3173 40.8527 40.4311 40.8713 40.538 40.9114C40.645 40.9515 40.7429 41.0123 40.8264 41.0903C41.7352 41.8222 42.8288 42.2884 43.9861 42.4375V38.0764C43.0638 37.9343 42.1815 37.6008 41.3958 37.0972C40.7354 36.683 40.241 36.0504 39.9987 35.3095C39.7564 34.5685 39.7814 33.7661 40.0694 33.0417C40.4792 31.9931 41.75 30.7986 43.9861 30.6042V29.3403C43.9861 29.1101 44.0776 28.8893 44.2404 28.7265C44.4032 28.5637 44.6239 28.4722 44.8542 28.4722C45.0844 28.4722 45.3052 28.5637 45.468 28.7265C45.6308 28.8893 45.7222 29.1101 45.7222 29.3403V30.6319C46.9636 30.7695 48.142 31.2504 49.125 32.0208C49.2612 32.1811 49.3346 32.3855 49.3315 32.5958C49.3284 32.8062 49.249 33.0083 49.1081 33.1645C48.9672 33.3207 48.7743 33.4204 48.5654 33.4451C48.3564 33.4697 48.1457 33.4177 47.9722 33.2986C47.3092 32.8137 46.536 32.5011 45.7222 32.3889V36.6458C46.1389 36.7361 46.5833 36.8333 47.0486 36.9792C47.5868 37.1134 48.0918 37.3563 48.5325 37.6931C48.9732 38.0299 49.3403 38.4534 49.6111 38.9375C49.9979 39.6939 50.0702 40.5724 49.8125 41.3819Z" fill="#ED5656"/>
<path d="M46.5278 38.6389C46.25 38.5555 45.9792 38.4861 45.7153 38.4305V42.4305C47.1042 42.2917 47.8472 41.8055 48.1667 40.8333C48.2731 40.4677 48.2359 40.0752 48.0625 39.7361C47.893 39.4599 47.6699 39.2205 47.4063 39.032C47.1427 38.8436 46.8439 38.7099 46.5278 38.6389Z" fill="#ED5656"/>
<path d="M41.6805 33.6667C41.5356 34.0267 41.5261 34.427 41.6538 34.7935C41.7815 35.16 42.0377 35.4677 42.375 35.6597C42.866 35.9743 43.413 36.1912 43.9861 36.2986V32.3264C42.5278 32.5 41.8542 33.2222 41.6805 33.6667Z" fill="#ED5656"/>
</svg>
