<svg width="23" height="25" viewBox="0 0 23 25" fill="none" xmlns="http://www.w3.org/2000/svg">
<path d="M11.8329 3.25137L17.8366 10.7042H1.91297C1.49898 10.7042 1.13044 10.9092 0.877986 11.2227C0.627845 11.5333 0.5 11.9355 0.5 12.3379C0.5 12.7403 0.627844 13.1425 0.877986 13.4531C1.13044 13.7666 1.49898 13.9715 1.91297 13.9715H17.8366L11.8329 21.4244L11.8328 21.4245C11.5825 21.7353 11.4545 22.1379 11.4545 22.5407C11.4545 22.9435 11.5825 23.3461 11.8328 23.6569C12.0855 23.9707 12.4543 24.1758 12.8686 24.1758C13.2829 24.1758 13.6518 23.9707 13.9044 23.6569L22.1208 13.4546C22.1209 13.4545 22.121 13.4544 22.121 13.4543C22.246 13.2994 22.341 13.1209 22.4045 12.9309C22.4681 12.7407 22.5 12.5394 22.5 12.3379C22.5 12.1364 22.4681 11.9351 22.4045 11.7449C22.341 11.5548 22.246 11.3762 22.1209 11.2212C22.1209 11.2212 22.1208 11.2212 22.1208 11.2212L13.9044 1.01884C13.6518 0.705098 13.2829 0.5 12.8686 0.5C12.4543 0.5 12.0855 0.705098 11.8328 1.01884C11.5825 1.32971 11.4545 1.73226 11.4545 2.13508C11.4545 2.53789 11.5825 2.94044 11.8328 3.25131L11.8329 3.25137Z" fill="white" stroke="white"/>
</svg>
